<svg width="32" height="27" viewBox="0 0 32 27" fill="none" xmlns="http://www.w3.org/2000/svg">
<g clip-path="url(#clip0_28_936)">
<path d="M0.0100098 10.6979H32.0075V8.93674C32.0137 8.51296 31.9317 8.09251 31.7667 7.70253C31.6017 7.31255 31.3574 6.96167 31.0494 6.67237C30.7542 6.3707 30.4016 6.13189 30.0127 5.97023C29.6237 5.80856 29.2063 5.72736 28.7855 5.73141H0.0100098V10.6979Z" fill="#FCF0E3"/>
<path d="M0.0100098 18.5477H32.0075V16.7865C32.0137 16.3628 31.9317 15.9424 31.7667 15.5524C31.6017 15.1624 31.3574 14.8115 31.0494 14.5222C30.7542 14.2205 30.4016 13.9817 30.0127 13.82C29.6237 13.6584 29.2063 13.5771 28.7855 13.5812H0.0100098V18.5477Z" fill="#FCF0E3"/>
<path d="M0.0100098 26.4H32.0075V24.6388C32.0137 24.215 31.9317 23.7946 31.7667 23.4047C31.6017 23.0147 31.3574 22.6637 31.0494 22.3744C30.7546 22.0723 30.402 21.8332 30.013 21.6715C29.6239 21.5098 29.2064 21.4288 28.7855 21.4335H0.0100098V26.4Z" fill="#FCF0E3"/>
<path d="M0 1.00389L0 9.26879C0 9.8246 0.447995 10.2752 1.00063 10.2752H4.29523C4.84786 10.2752 5.29585 9.8246 5.29585 9.26879L5.29585 1.00389C5.29585 0.448079 4.84786 -0.00249481 4.29523 -0.00249481H1.00063C0.447995 -0.00249481 0 0.448079 0 1.00389Z" fill="#FCF0E3"/>
</g>
<defs>
<clipPath id="clip0_28_936">
<rect width="32" height="26.4" fill="white"/>
</clipPath>
</defs>
</svg>
