<svg width="125" height="205" viewBox="0 0 125 205" fill="none" xmlns="http://www.w3.org/2000/svg">
<g clip-path="url(#clip0_984_11)">
<path d="M80.5233 40.3023C77.6151 43.8326 72.5335 51.0577 74.4055 54.2656C76.2612 57.4368 79.0513 56.7927 79.0513 56.7927C79.0513 56.7927 74.6461 62.8214 77.2607 66.7363C80.4913 71.5762 85.119 69.1212 85.119 69.1212C85.119 69.1212 83.0202 73.9226 88.0852 76.7853C92.1845 79.1029 97.8748 74.2677 97.8748 74.2677C97.8748 74.2677 97.4355 77.1018 100.741 78.713C104.079 80.3416 110.901 74.7426 114.205 71.5811C117.851 68.0907 159.961 23.8965 159.961 23.8965L123.777 -9.69481C123.777 -9.69481 83.7331 36.4073 80.5233 40.3023Z" fill="#DEB180"/>
<path d="M94.6154 57.7155C99.9531 62.6693 108.65 63.159 108.449 57.7423C108.248 52.3255 103.201 54.44 100.083 51.544C97.1399 48.7996 98.3242 44.4202 94.234 43.7607C90.1439 43.1013 88.5689 52.1007 94.6154 57.7155Z" fill="#2D2B2C"/>
<path d="M102.207 75.6691C103.77 76.8865 105.577 75.6593 106.866 73.916C108.156 72.1727 108.227 70.2746 107.134 69.4569C106.041 68.6392 103.862 69.3614 102.383 71.1249C100.904 72.8885 100.936 74.6812 102.207 75.6691Z" fill="#2D2B2C"/>
<path d="M94.1842 67.5631C93.0899 66.7442 90.9125 67.4676 89.4323 69.2324C87.9521 70.9973 87.9822 72.7901 89.2563 73.7766C90.8192 74.994 92.6262 73.7668 93.9171 72.0223C95.2079 70.2777 95.2773 68.3808 94.1842 67.5631Z" fill="#2D2B2C"/>
<path d="M85.4419 59.4463C84.3488 58.6286 82.169 59.352 80.6913 61.1168C79.2136 62.8815 79.2412 64.6744 80.5153 65.6609C82.0769 66.8771 83.8852 65.6512 85.1748 63.9079C86.4645 62.1646 86.5338 60.2652 85.4419 59.4463Z" fill="#2D2B2C"/>
<path d="M78.2664 48.7329C76.7913 50.5026 76.8163 52.2906 78.0904 53.2771C79.652 54.4933 81.4603 53.2673 82.7512 51.5228C84.0421 49.7782 84.1102 47.8801 83.0171 47.0624C81.924 46.2447 79.7389 46.9609 78.2664 48.7329Z" fill="#2D2B2C"/>
<g opacity="0.2">
<path opacity="0.2" d="M99.9981 58.9993C103.537 60.2396 106.276 59.3724 106.216 57.7583C106.156 56.1442 102.485 57.4987 100.506 56.3542C98.6486 55.2775 96.0185 53.1297 95.156 53.7251C93.7111 54.721 96.1774 57.6596 99.9981 58.9993Z" fill="white"/>
<path opacity="0.2" d="M103.202 74.5734C103.827 75.2186 104.832 74.4121 105.464 73.816C105.989 73.3231 106.671 72.5402 106.246 72.0197C105.822 71.4991 105.001 72.2173 104.409 72.5746C103.816 72.932 102.693 74.0458 103.202 74.5734Z" fill="white"/>
<path opacity="0.2" d="M92.9833 70.4288C92.5589 69.9058 91.738 70.6264 91.1443 70.9851C90.5506 71.3437 89.4302 72.455 89.9393 72.9825C90.563 73.6291 91.5684 72.8212 92.2011 72.2252C92.728 71.7297 93.4089 70.9481 92.9833 70.4288Z" fill="white"/>
<path opacity="0.2" d="M81.2513 64.7147C81.875 65.3612 82.8805 64.5534 83.5132 63.9573C84.0364 63.4657 84.721 62.6827 84.2942 62.1623C83.8674 61.6418 83.0501 62.3586 82.4563 62.7172C81.8626 63.0759 80.741 64.1884 81.2513 64.7147Z" fill="white"/>
<path opacity="0.2" d="M78.6601 52.0485C79.2839 52.695 80.2893 51.8871 80.922 51.2911C81.4452 50.7995 82.1298 50.0165 81.7042 49.4948C81.2786 48.973 80.4589 49.6923 79.8651 50.051C79.2714 50.4097 78.1498 51.5222 78.6601 52.0485Z" fill="white"/>
</g>
<path d="M126.364 -2.69073C124.772 -4.18836 123.082 -5.57965 121.306 -6.85557C119.523 -4.79937 116.891 -1.76813 113.806 1.78705C119.559 6.94374 127.187 11.9368 128.92 12.9433C136.314 17.2413 144.556 20.0824 150.894 25.9714C152.023 27.0239 153.272 28.2635 154.484 29.636C156.33 27.7006 157.806 26.1508 158.76 25.151C157.045 24.2308 155.317 23.28 153.623 22.1989C146.494 17.6543 140.777 10.7 134.584 4.93877L126.364 -2.69073Z" fill="#2D2B2C"/>
<path d="M104.975 11.9719C106.264 15.1928 109.341 17.484 112.118 19.8341C121.338 27.6734 131.989 35.5942 139.842 44.9683C142.046 42.6638 144.21 40.3981 146.264 38.2467C144.084 36.1241 142.358 34.2291 141.778 33.5823C133.587 24.6039 124.068 8.34388 111.037 4.97961C109.097 7.21772 107.054 9.57241 104.975 11.9719Z" fill="#2D2B2C"/>
<path d="M96.6592 21.5686C93.9077 24.7481 91.2768 27.788 88.9578 30.4729C90.6302 33.0857 92.5608 35.524 94.7205 37.751C100.115 43.293 106.301 47.9625 112.52 52.5066C116.516 55.429 120.906 57.7799 125.182 60.2714C127.406 57.9588 129.828 55.4306 132.329 52.8213C123.501 45.7286 115.802 37.0486 107.161 29.7444C105.937 28.7014 101.329 24.7134 96.6592 21.5686Z" fill="#2D2B2C"/>
</g>
<g clip-path="url(#clip1_984_11)">
<path d="M67.4772 94.1471C67.4772 94.1471 62.3294 88.9857 61.1614 89.8058C59.7047 90.8223 64.0672 97.0886 64.0672 97.0886L67.4772 94.1471Z" fill="#7A796E"/>
<path d="M53.3854 109.328C53.3854 109.328 46.578 106.749 45.8449 107.983C44.9348 109.51 51.4958 113.412 51.4958 113.412L53.3854 109.328Z" fill="#7A796E"/>
<path d="M70.3963 153.218C70.3963 153.218 65.8311 158.888 64.5764 158.203C63.0191 157.346 66.7027 150.654 66.7027 150.654L70.3963 153.218Z" fill="#7A796E"/>
<path d="M54.7852 139.615C54.7852 139.615 48.289 142.9 47.4281 141.751C46.3626 140.329 52.4734 135.753 52.4734 135.753L54.7852 139.615Z" fill="#7A796E"/>
<path d="M68.1749 92.4324C57.0378 96.0937 62.0888 106.277 62.0888 106.277C62.0888 106.277 51.1935 104.078 49.8801 112.29C48.8251 118.891 53.5676 123.404 55.0595 124.219C53.7535 125.06 49.0948 130.972 51.6418 137.399C54.7645 145.277 63.678 141.476 63.678 141.476C63.678 141.476 59.6579 152.115 71.0994 154.652C80.2826 156.693 80.9212 143.244 84.9748 142.527C89.0285 141.81 142.444 145.021 142.444 145.021L140.119 94.9631C140.119 94.9631 87.2908 103.437 83.1857 103.124C79.0805 102.812 77.1185 89.4947 68.1749 92.4324Z" fill="#FCF0E3"/>
<path d="M68.0666 123.364C68.3085 130.746 74.1565 137.361 77.9084 133.349C81.6602 129.337 76.5426 127.211 76.401 122.891C76.2674 118.812 80.2701 116.542 77.8269 113.121C75.3837 109.7 67.7926 115.003 68.0666 123.364Z" fill="#1A1A1A"/>
<path d="M68.8467 145.811C67.6825 147.833 68.0165 149.615 69.4588 150.382C71.2304 151.323 72.8178 149.793 73.8041 147.823C74.7904 145.853 74.5307 143.949 73.3009 143.32C72.0712 142.69 70.0123 143.78 68.8467 145.811Z" fill="#1A1A1A"/>
<path d="M62.2047 130.973C61.3354 129.896 59.0132 130.057 57.1254 131.428C55.2375 132.799 54.817 134.563 55.8211 135.85C57.0555 137.434 59.1345 136.687 60.8312 135.29C62.528 133.894 63.0721 132.051 62.2047 130.973Z" fill="#1A1A1A"/>
<path d="M67.2594 97.8103C65.9637 98.802 65.9289 100.616 67.4104 102.42C68.892 104.223 71.0982 104.97 72.209 104.141C73.3199 103.312 73.2589 101.398 71.9683 99.6167C70.6777 97.8354 68.8535 96.5898 67.2594 97.8103Z" fill="#1A1A1A"/>
<path d="M54.7722 113.827C53.9943 115.263 54.6962 116.933 56.7876 117.974C58.8789 119.015 61.192 118.792 61.8708 117.585C62.5497 116.379 61.7107 114.65 59.8078 113.557C57.905 112.463 55.7315 112.064 54.7722 113.827Z" fill="#1A1A1A"/>
<path d="M88.145 138.778C89.5188 138.813 90.8943 138.845 92.2671 138.901C93.3212 138.947 94.5295 138.923 95.5366 139.214C96.0912 139.374 96.7185 138.983 96.8484 138.552C97.0095 138.041 96.6107 137.646 96.056 137.486C94.9325 137.167 93.5766 137.191 92.3977 137.137C90.9624 137.07 89.523 137.041 88.0868 137.004C86.6881 136.97 86.7551 138.743 88.1451 138.783L88.145 138.778Z" fill="#2D2B2C"/>
<path d="M93.9484 134.919C95.2687 134.73 96.5889 134.539 97.9156 134.383C98.9074 134.265 100.395 134.081 101.157 134.177C102.529 134.353 103.062 132.624 101.677 132.449C100.486 132.296 99.2464 132.454 98.0594 132.587C96.6633 132.741 95.2778 132.947 93.8903 133.146C93.3063 133.229 92.8185 133.537 92.836 134.071C92.8503 134.507 93.3627 135.006 93.9486 134.925L93.9484 134.919Z" fill="#2D2B2C"/>
<path d="M90.2809 128.972C91.1458 128.778 91.9851 128.507 92.8267 128.255C93.2722 128.121 93.7213 127.989 94.1707 127.865C94.3468 127.813 94.539 127.766 94.726 127.722C94.8019 127.704 94.8796 127.687 94.9556 127.672C95.277 127.605 94.7655 127.678 95.0124 127.67C96.4033 127.577 96.3505 125.803 94.9541 125.891C94.1291 125.947 93.3187 126.23 92.5474 126.458C91.5876 126.742 90.6341 127.055 89.6494 127.281C88.2955 127.584 88.9288 129.275 90.2809 128.972Z" fill="#2D2B2C"/>
<path d="M87.9314 119.021C90.9258 119.025 93.892 118.6 96.8809 118.491C98.2788 118.445 98.2205 116.666 96.8226 116.712C93.8337 116.821 90.8675 117.246 87.8731 117.242C86.4736 117.24 86.5371 119.013 87.9314 119.021Z" fill="#2D2B2C"/>
<path d="M100.34 122.52C102.407 122.333 104.516 122.383 106.544 121.93C107.896 121.624 107.262 119.933 105.91 120.238C104.085 120.654 102.152 120.576 100.285 120.746C98.9024 120.872 98.9516 122.646 100.343 122.525L100.34 122.52Z" fill="#2D2B2C"/>
<path d="M102.775 113.915C104.069 113.419 105.575 113.264 106.981 113.307C108.387 113.35 108.31 111.577 106.923 111.528C105.118 111.471 103.319 111.772 101.63 112.414C101.516 112.46 101.414 112.531 101.332 112.623C101.249 112.714 101.189 112.823 101.155 112.942C101.122 113.06 101.116 113.184 101.138 113.306C101.16 113.427 101.21 113.541 101.283 113.64C101.623 114.085 102.237 114.116 102.774 113.908L102.775 113.915Z" fill="#2D2B2C"/>
<path d="M88.2635 111.522C90.102 111.194 91.6635 110.064 93.5644 109.961C94.9577 109.883 94.9031 108.109 93.5061 108.182C91.3549 108.299 89.6877 109.458 87.63 109.826C86.2618 110.07 86.9022 111.761 88.2633 111.517L88.2635 111.522Z" fill="#2D2B2C"/>
<path d="M105.153 106.121C107.731 105.429 110.444 105.235 113.062 104.677C114.42 104.391 113.783 102.695 112.429 102.987C109.812 103.539 107.098 103.739 104.521 104.428C103.19 104.785 103.817 106.478 105.153 106.121Z" fill="#2D2B2C"/>
<path d="M116.545 113.822C118.612 113.63 120.667 113.343 122.75 113.262C124.146 113.217 124.089 111.438 122.691 111.484C120.612 111.562 118.557 111.849 116.486 112.043C115.104 112.172 115.151 113.946 116.545 113.822Z" fill="#2D2B2C"/>
<path d="M104.754 129.239C106.588 129.294 108.417 129.35 110.252 129.295C111.65 129.25 111.592 127.481 110.194 127.516C108.359 127.577 106.529 127.515 104.696 127.46C103.299 127.418 103.368 129.192 104.754 129.239Z" fill="#2D2B2C"/>
<path d="M102.346 139.582C104.261 139.776 106.103 140.268 108.017 140.465C109.389 140.598 109.921 138.877 108.537 138.737C106.622 138.543 104.78 138.051 102.868 137.854C101.494 137.721 100.964 139.443 102.346 139.582Z" fill="#2D2B2C"/>
<path d="M111.185 135.663C113.401 135.47 115.617 135.28 117.816 134.972C118.4 134.891 118.888 134.581 118.87 134.047C118.856 133.612 118.343 133.114 117.757 133.193C115.559 133.501 113.343 133.694 111.126 133.884C109.742 134.005 109.791 135.78 111.185 135.663Z" fill="#2D2B2C"/>
<path d="M123.723 138.677C126.35 138.488 128.975 138.665 131.507 137.916C132.823 137.529 132.2 135.835 130.876 136.226C128.534 136.917 126.092 136.728 123.665 136.903C122.276 137.004 122.327 138.778 123.723 138.682L123.723 138.677Z" fill="#2D2B2C"/>
<path d="M119.676 129.934C121.961 129.838 124.161 129.31 126.286 128.62C127.581 128.199 126.962 126.504 125.653 126.93C123.707 127.562 121.713 128.072 119.618 128.16C118.222 128.219 118.278 129.985 119.676 129.939L119.676 129.934Z" fill="#2D2B2C"/>
<path d="M112.662 123.386C114.805 122.978 116.968 122.68 119.142 122.495C120.527 122.371 120.478 120.597 119.084 120.716C116.718 120.919 114.363 121.244 112.03 121.69C110.666 121.955 111.305 123.644 112.662 123.381L112.662 123.386Z" fill="#2D2B2C"/>
<path d="M122.754 117.965C124.659 117.36 127.176 117.251 129.113 117.757C130.442 118.107 130.949 116.374 129.634 116.029C127.378 115.437 124.344 115.568 122.123 116.275C120.823 116.69 121.442 118.384 122.754 117.965Z" fill="#2D2B2C"/>
<path d="M125.949 108.289C126.051 108.207 125.745 108.397 126.007 108.269C126.111 108.225 126.102 108.225 125.982 108.27C126.074 108.235 126.169 108.205 126.262 108.177C126.613 108.072 126.97 107.987 127.331 107.921C128.217 107.756 129.111 107.635 130.009 107.561C130.956 107.471 131.911 107.418 132.864 107.405C133.59 107.395 133.959 107.369 134.56 107.528C135.886 107.883 136.391 106.15 135.08 105.797C134.371 105.609 133.545 105.63 132.806 105.635C131.739 105.643 130.675 105.719 129.611 105.823C128.542 105.921 127.479 106.074 126.426 106.284C125.698 106.434 124.917 106.641 124.368 107.083C123.361 107.893 124.939 109.093 125.94 108.278L125.949 108.289Z" fill="#2D2B2C"/>
<path d="M115.963 108.019C116.704 107.297 117.916 106.999 118.878 106.524C120.082 105.931 118.94 104.435 117.734 105.028C116.594 105.6 115.275 105.957 114.391 106.815C113.507 107.674 115.057 108.904 115.963 108.019Z" fill="#2D2B2C"/>
<path d="M92.2879 106.332C94.028 106.258 95.7353 105.888 97.4826 105.927C98.8812 105.956 98.8142 104.183 97.4243 104.148C95.677 104.109 93.9697 104.479 92.2297 104.555C90.834 104.615 90.8901 106.38 92.288 106.334L92.2879 106.332Z" fill="#2D2B2C"/>
<g opacity="0.26">
<path opacity="0.26" d="M70.7465 128.364C72.3775 131.799 74.9539 133.152 76.0704 131.956C77.187 130.76 73.5972 129.084 73.0099 126.842C72.459 124.735 72.1333 121.307 71.0866 121.11C69.3404 120.781 68.9855 124.655 70.7465 128.364Z" fill="#F08641"/>
<path opacity="0.26" d="M70.4662 149.87C71.1765 150.439 72.0879 149.494 72.6419 148.819C73.1053 148.257 73.6902 147.385 73.1982 146.913C72.7062 146.441 71.9652 147.27 71.423 147.707C70.8807 148.143 69.8872 149.404 70.4662 149.87Z" fill="#F08641"/>
<path opacity="0.26" d="M56.6134 135.391C56.9557 136.235 58.211 135.852 59.0238 135.533C59.7014 135.267 60.6371 134.791 60.4361 134.139C60.2351 133.486 59.1821 133.854 58.4995 133.967C57.8169 134.08 56.333 134.702 56.6134 135.391Z" fill="#F08641"/>
<path opacity="0.26" d="M55.4642 114.81C54.9427 115.556 55.9447 116.397 56.6531 116.908C57.2432 117.334 58.1513 117.862 58.5894 117.34C59.0275 116.818 58.1535 116.138 57.6812 115.617C57.209 115.097 55.8887 114.202 55.4642 114.81Z" fill="#F08641"/>
<path opacity="0.26" d="M67.4663 98.9148C66.7467 99.4726 67.4498 100.58 67.9741 101.279C68.411 101.861 69.1192 102.636 69.6939 102.268C70.2686 101.9 69.6361 100.991 69.3413 100.353C69.0466 99.7142 68.0541 98.4592 67.4663 98.9148Z" fill="#F08641"/>
</g>
</g>
<g clip-path="url(#clip2_984_11)">
<path d="M7.43194 59.9161C7.43194 59.9161 1.67594 63.7642 2.22401 65.0127C2.90197 66.5598 9.54524 63.6353 9.54524 63.6353L7.43194 59.9161Z" fill="#2D2B2C"/>
<path d="M18.9803 75.8632C18.9803 75.8632 15.3233 81.7417 16.3375 82.6537C17.5929 83.7826 22.4395 78.3777 22.4395 78.3777L18.9803 75.8632Z" fill="#2D2B2C"/>
<path d="M63.0114 68.0659C63.0114 68.0659 67.459 73.3726 66.5841 74.4169C65.5012 75.7035 59.9422 71.0439 59.9422 71.0439L63.0114 68.0659Z" fill="#2D2B2C"/>
<path d="M47.4591 80.1402C47.4591 80.1402 49.3222 86.807 48.0943 87.3883C46.5632 88.1204 43.4348 81.5678 43.4348 81.5678L47.4591 80.1402Z" fill="#2D2B2C"/>
<path d="M5.96373 58.9448C7.32362 70.0115 17.7478 67.1737 17.7478 67.1737C17.7478 67.1737 13.6911 76.9378 21.1009 79.6747C27.0576 81.8738 32.1367 78.2784 33.1706 77.0371C33.7126 78.4101 38.363 83.8462 44.8234 82.6519C52.738 81.1897 50.8391 72.1705 50.8391 72.1705C50.8391 72.1705 60.006 77.882 64.4833 67.6679C68.0761 59.4744 55.6633 56.4038 55.7432 52.4877C55.8231 48.5715 68.6552 -0.679417 68.6552 -0.679417L21.5847 -7.72584C21.5847 -7.72584 19.7465 43.1386 18.701 46.9121C17.6555 50.6856 4.87354 50.0632 5.96373 58.9448Z" fill="#FDBF12"/>
<path d="M34.7597 64.7489C41.6819 65.882 48.923 61.6431 45.8772 57.4026C42.8313 53.1621 40.8785 51.189 36.833 50.5276C33.0067 49.9011 30.6558 52.1057 27.0188 53.7555C23.3818 55.4054 26.927 63.4628 34.7597 64.7489Z" fill="#2D2B2C"/>
<path d="M55.8234 68.1487C57.4943 69.6093 59.2166 69.6247 60.1953 68.4207C61.3995 66.9391 60.2748 65.1724 58.6116 63.8937C56.9485 62.615 55.137 62.5035 54.3229 63.5362C53.5087 64.569 54.1523 66.6898 55.8234 68.1487Z" fill="#2D2B2C"/>
<path d="M40.775 71.617C39.6179 72.2311 39.3328 74.4274 40.2629 76.4418C41.1931 78.4563 42.7602 79.1723 44.1437 78.4723C45.8462 77.6112 45.5332 75.5348 44.5442 73.6915C43.5552 71.8482 41.9389 71.0056 40.775 71.617Z" fill="#2D2B2C"/>
<path d="M10.8053 60.795C11.4916 62.1874 13.1747 62.5467 15.1273 61.5043C17.0798 60.462 18.1797 58.5312 17.6165 57.3416C17.0534 56.1519 15.2543 55.8558 13.3561 56.7336C11.458 57.6114 9.96188 59.0805 10.8053 60.795Z" fill="#2D2B2C"/>
<path d="M23.4317 75.3993C24.6249 76.3909 26.3124 76.0398 27.6665 74.2829C29.0205 72.5261 29.2403 70.3228 28.2419 69.4666C27.2434 68.6105 25.478 69.0746 24.1037 70.6497C22.7294 72.2248 21.963 74.179 23.4317 75.3993Z" fill="#2D2B2C"/>
<path d="M48.9338 29.01C43.7079 29.7601 43.9567 37.9356 45.8209 41.2577C47.5523 44.356 52.8721 46.6842 56.9719 46.1048C57.9963 41.5442 59.5736 35.0596 61.2445 28.3585C59.5128 29.2498 57.7391 30.2141 55.8833 30.4458C53.3871 30.7649 51.2108 28.6829 48.9338 29.01Z" fill="#2D2B2C"/>
<path d="M20.0356 28.5641C25.0386 29.1092 29.227 28.6169 33.858 25.5431C38.6601 22.3562 43.2545 19.2882 48.4889 16.84C52.3618 15.0339 54.2353 13.1698 54.9196 8.98053C55.4657 5.61785 55.9051 1.25237 55.2618 -2.6788L21.582 -7.71904C21.582 -7.71904 20.8422 12.6466 20.0356 28.5641Z" fill="#2D2B2C"/>
<g opacity="0.33">
<path opacity="0.33" d="M39.8 63.3561C43.3007 62.465 45.046 60.3025 44.1282 59.0471C43.2104 57.7918 40.9947 60.8275 38.7975 60.9613C36.7338 61.088 33.4793 60.7624 33.102 61.7018C32.4733 63.2716 36.0196 64.3152 39.8 63.3561Z" fill="#DEB180"/>
<path opacity="0.33" d="M59.7865 67.5741C60.4487 67.0187 59.7345 65.9932 59.209 65.3476C58.7708 64.8122 58.0655 64.1066 57.5356 64.4775C57.0058 64.8484 57.6411 65.6879 57.9463 66.2805C58.2514 66.8731 59.247 68.0297 59.7865 67.5741Z" fill="#DEB180"/>
<path opacity="0.33" d="M43.7438 77.8383C44.5913 77.6749 44.4705 76.432 44.3191 75.6148C44.196 74.9339 43.9243 73.9733 43.2775 74.042C42.6308 74.1107 42.7827 75.15 42.7607 75.8185C42.7387 76.4871 43.0487 77.9739 43.7438 77.8383Z" fill="#DEB180"/>
<path opacity="0.33" d="M24.3536 75.1224C24.9526 75.7402 25.9275 74.9763 26.535 74.4009C27.0388 73.9316 27.6988 73.1789 27.2925 72.6729C26.8861 72.1669 26.0928 72.8587 25.52 73.2024C24.9473 73.546 23.8634 74.614 24.3536 75.1224Z" fill="#DEB180"/>
<path opacity="0.33" d="M11.7523 60.996C12.1395 61.7644 13.3027 61.3177 14.0497 60.9563C14.674 60.6554 15.5264 60.1364 15.2889 59.5331C15.0514 58.9299 14.0883 59.3535 13.4406 59.5098C12.7928 59.666 11.4395 60.354 11.7523 60.996Z" fill="#DEB180"/>
</g>
</g>
<defs>
<clipPath id="clip0_984_11">
<rect width="49.3713" height="87.9708" fill="white" transform="translate(99.9656 88.2248) rotate(-136.998)"/>
</clipPath>
<clipPath id="clip1_984_11">
<rect width="68.6166" height="95.4322" fill="white" transform="translate(47.4136 158.833) rotate(-91.877)"/>
</clipPath>
<clipPath id="clip2_984_11">
<rect width="65.178" height="90.83" fill="white" transform="translate(64.5945 89.7185) rotate(-172.328)"/>
</clipPath>
</defs>
</svg>
